<?xml version="1.0" standalone="no"?>
<!DOCTYPE svg PUBLIC "-//W3C//DTD SVG 20010904//EN"
 "http://www.w3.org/TR/2001/REC-SVG-20010904/DTD/svg10.dtd">
<svg version="1.0" xmlns="http://www.w3.org/2000/svg"
 width="512.000000pt" height="512.000000pt" viewBox="0 0 512.000000 512.000000"
 preserveAspectRatio="xMidYMid meet">
<metadata>
Created by potrace 1.11, written by Peter Selinger 2001-2013
</metadata>
<g transform="translate(0.000000,512.000000) scale(0.100000,-0.100000)"
fill="#000000" stroke="none">
<path d="M0 2560 l0 -2560 2560 0 2560 0 0 2560 0 2560 -2560 0 -2560 0 0
-2560z m2847 1431 c243 -53 468 -166 663 -334 240 -206 418 -520 477 -837 23
-129 23 -381 0 -510 -106 -577 -564 -1047 -1140 -1170 -188 -41 -440 -37 -637
10 -471 113 -881 490 -1035 953 -51 154 -65 237 -72 407 -9 253 39 485 145
696 217 432 644 739 1114 803 113 15 377 5 485 -18z"/>
<path d="M2398 3723 c-25 -4 -28 -8 -28 -44 0 -70 -42 -119 -101 -119 -11 0
-55 18 -99 40 l-80 40 -55 -25 c-205 -97 -412 -302 -519 -514 l-28 -54 126
-187 c166 -248 192 -271 486 -428 188 -100 241 -143 259 -208 6 -22 11 -95 11
-164 0 -138 3 -147 80 -239 77 -93 110 -194 110 -335 l0 -89 93 6 c157 11 142
-3 213 198 35 96 66 187 69 203 4 18 33 57 70 95 78 78 98 117 103 197 5 81
-12 117 -98 198 -86 81 -108 86 -365 86 l-194 0 -73 87 -74 87 -76 12 c-73 11
-180 56 -220 92 -10 8 -18 29 -18 47 0 18 8 39 18 47 27 24 240 90 265 82 12
-4 40 -22 62 -41 47 -40 71 -48 108 -34 39 15 35 41 -23 165 -56 119 -56 121
5 175 30 26 44 31 84 31 44 0 52 4 85 40 20 22 36 44 36 50 0 5 -13 25 -30 43
-16 19 -30 43 -30 54 0 10 27 45 60 78 64 64 81 105 60 146 -7 13 -49 61 -93
107 -79 80 -83 82 -127 81 -25 -1 -57 -4 -72 -6z"/>
<path d="M3535 3052 c-39 -21 -61 -44 -103 -107 -121 -182 -121 -195 -21 -347
40 -60 84 -115 98 -122 14 -7 64 -23 110 -35 69 -19 85 -20 93 -9 16 24 2 315
-20 403 -26 102 -82 245 -96 245 -6 0 -33 -13 -61 -28z"/>
</g>
</svg>
